<?xml version="1.0" standalone="no"?>
<!DOCTYPE svg PUBLIC "-//W3C//DTD SVG 20010904//EN"
 "http://www.w3.org/TR/2001/REC-SVG-20010904/DTD/svg10.dtd">
<svg version="1.0" xmlns="http://www.w3.org/2000/svg"
 width="152.000000pt" height="106.000000pt" viewBox="0 0 152.000000 106.000000"
 preserveAspectRatio="xMidYMid meet">

<g transform="translate(0.000000,106.000000) scale(0.100000,-0.100000)"
fill="#000000" stroke="none">
<path d="M415 946 c-124 -31 -230 -117 -287 -233 -32 -65 -33 -73 -33 -183 0
-110 1 -118 33 -183 58 -119 172 -209 300 -236 71 -15 593 -15 664 0 128 27
242 117 300 236 32 65 33 73 33 183 0 110 -1 118 -33 183 -58 119 -172 209
-300 236 -74 16 -611 13 -677 -3z m255 -141 c0 -2 -11 -20 -25 -40 -92 -136
-92 -334 0 -470 32 -46 25 -49 -98 -43 -76 3 -103 9 -150 31 -185 91 -213 340
-50 464 56 43 127 62 231 63 50 0 92 -2 92 -5z m457 -31 c205 -99 203 -389 -4
-490 -183 -90 -393 41 -393 246 0 208 208 336 397 244z"/>
</g>
</svg>
